<svg xmlns="http://www.w3.org/2000/svg" xmlns:xlink="http://www.w3.org/1999/xlink" version="1.1" id="Layer_1" x="0px" y="0px" width="30" height="30" viewBox="0 0 100 100" style="enable-background:new 0 0 100 100;" xml:space="preserve" overflow="hidden" preserveAspectRatio="none" class="svg-view__svg">
<path id="Color1" style="fill: rgb(255, 255, 255);" d="M100,98c0,1.1-0.9,2-2,2H2c-1.1,0-2-0.9-2-2l0,0c0-1.1,0.9-2,2-2h96  C99.1,96,100,96.9,100,98L100,98z M20.7,50.9c0-1.1-0.9-2-2-2l0,0c-1.1,0-2,0.9-2,2v38.9c0,1.1,0.9,2,2,2l0,0c1.1,0,2-0.9,2-2V50.9z   M29.1,37.2c-1.1,0-2,0.9-2,2v50.6c0,1.1,0.9,2,2,2c1.1,0,2-0.9,2-2V39.2C31.1,38.1,30.2,37.2,29.1,37.2z M39.6,27.5  c-1.1,0-2,0.9-2,2v60.3c0,1.1,0.9,2,2,2c1.1,0,2-0.9,2-2V29.5C41.6,28.4,40.7,27.5,39.6,27.5z M50,39.7c-1.1,0-2,0.9-2,2v48.2  c0,1.1,0.9,2,2,2s2-0.9,2-2V41.7C52,40.6,51.1,39.7,50,39.7z M62.4,50.9c0-1.1-0.9-2-2-2l0,0c-1.1,0-2,0.9-2,2v38.9c0,1.1,0.9,2,2,2  l0,0c1.1,0,2-0.9,2-2V50.9z M70.9,40.7c-1.1,0-2,0.9-2,2v47.1c0,1.1,0.9,2,2,2c1.1,0,2-0.9,2-2V42.7C72.9,41.6,72,40.7,70.9,40.7z   M81.3,29.8c-1.1,0-2,0.9-2,2v58c0,1.1,0.9,2,2,2c1.1,0,2-0.9,2-2v-58C83.3,30.7,82.4,29.8,81.3,29.8z M91.8,19.3c-1.1,0-2,0.9-2,2  v68.6c0,1.1,0.9,2,2,2c1.1,0,2-0.9,2-2V21.3C93.8,20.2,92.9,19.3,91.8,19.3z M8.2,59.3c-1.1,0-2,0.9-2,2v28.5c0,1.1,0.9,2,2,2  c1.1,0,2-0.9,2-2V61.3C10.2,60.2,9.3,59.3,8.2,59.3z M100,1.3c0-0.7-0.6-1.3-1.3-1.3h-9.9c-0.7,0-1.3,0.6-1.3,1.3v1.3  c0,0.7,0.6,1.3,1.3,1.3h4.1L62.7,33.3c-1.1,1-2.8,1-3.8-0.1L41.7,14.8c-1-1.1-2.7-1.1-3.7,0L0.9,52.6c-1,1.1-1.2,2.6-0.3,3.5  C1.4,56.9,3,56.7,4,55.6l33.9-34.6c1-1.1,2.7-1,3.7,0l17.2,18.4c1,1.1,2.7,1.1,3.8,0.1l24.6-23.9c0,0,0,0,0.1,0l0.6-0.6L96,7v4.2  c0,0.7,0.6,1.3,1.3,1.3h1.3c0.7,0,1.3-0.6,1.3-1.3V1.3z"></path>
<g>
</g>
<g>
</g>
<g>
</g>
<g>
</g>
<g>
</g>
<g>
</g>
<g>
</g>
<g>
</g>
<g>
</g>
<g>
</g>
<g>
</g>
<g>
</g>
<g>
</g>
<g>
</g>
<g>
</g>
</svg>