<svg xmlns="http://www.w3.org/2000/svg" xmlns:xlink="http://www.w3.org/1999/xlink" version="1.1" id="Layer_1" x="0px" y="0px" width="26.302001953125" height="31.56240234375" viewBox="0 0 125 150.6" style="enable-background:new 0 0 125 150.6;" xml:space="preserve" overflow="hidden" preserveAspectRatio="none" class="svg-view__svg">
<path id="Color1" style="fill: rgb(255, 255, 255);" d="M38.9,48.1c1.2,1,2.8,2.3,4,3c2.2,1.3,3.2,0.9,5.7,1.4c4.5,1,2.9,7.6,6.4,8.6  c2.8,0.8,3.1-2.4,5.1-2.2c2.5,0.4,2,2.8,2.3,4.5c0.8,4.8-0.5,5.3-1,9.5c-0.7,5.4,3.5,4.7,6.4,7.6c3.2,3.3,1.1,8,0.7,11.9  c-0.6,6.3,3.2,4.9,6.7,2.1c6.9-5.7,15.2-10.9,21.2-17.6c2.4-2.7,6-7,1.5-10.1c-3.3-2.2-6.5-0.9-9.5-4.5C83,56.1,74,55,65.5,55  c-5.2,0-6.2-0.3-9.2-3.6c-2.2-2.4-6-5.8-1.2-8.3c3.4-1.7,8.1,0.8,11.6-1.2c3.6-2.1,3.9-6.6,7.6-8.8c1.3-0.8,3.7-2,5.2-2.5  c1.7-0.6,4.1,0.2,5.7-0.5c4.2-1.8,1.9-6.1-1.1-8.1c-3.8-2.6-8.5-3.1-13.1-2.8c-2.3,0.1-4.9,0.9-7.3,0.5c-1.8-0.3-3.3-1.5-5.4-1.7  c-4.1-0.3-8.1,1-11.1,4c-2.3,2.4-2.7,6-5.1,8.4c-2.6,2.6-5.7,4.7-6.6,8.5C34.5,42.7,36,45.8,38.9,48.1z M94.1,38.7  c0.1,2.1-1.6,3.3-1.6,5.1c0,6.5,8.7-0.2,10.2,4.6c1,3.4-4.3,9.2,1.2,11.9c5.1,2.5,4.3-5.7,4.1-8.8c-0.4-5.1-2.2-9.9-4.8-14.2  c-1.3-2.1-2.8-4.2-4.5-5.9c-1.1-1.1-2.9-3.5-4.5-3.7c-2.2-0.3-1.9,4.8-1.6,6.4C92.7,35.6,94,37,94.1,38.7z M118.3,95  c-12,14.6-29.7,23-48.6,23C35.1,118,7,89.9,7,55.3c0-15.3,5.5-30,15.6-41.4c1.3-1.4,1.1-3.6-0.3-4.9c-1.4-1.3-3.6-1.1-4.9,0.3  C6.2,22,0,38.3,0,55.3C0,93.7,31.3,125,69.7,125c21,0,40.6-9.3,53.9-25.5c1.2-1.5,1-3.7-0.5-4.9C121.7,93.3,119.5,93.6,118.3,95z   M69.7,129.6c-11.8,0-22.9,5.8-29.7,15.4c-1.1,1.6-0.7,3.7,0.8,4.9c0.6,0.4,1.3,0.6,2,0.6c0.1,0,0.2,0,0.2,0c0.1,0,0.2,0,0.3,0h51.7  c0.2,0,0.5,0,0.7-0.1c0.9,0.2,1.9,0,2.7-0.6c1.6-1.1,2-3.3,0.8-4.9C92.6,135.4,81.5,129.6,69.7,129.6z M50.8,143.6  c5.2-4.4,11.9-7,18.9-7c7,0,13.7,2.5,18.9,7H50.8z M69.7,110.5c30.5,0,55.3-24.8,55.3-55.3C125,24.8,100.2,0,69.7,0  C39.3,0,14.5,24.8,14.5,55.3C14.5,85.7,39.3,110.5,69.7,110.5z M69.7,7C96.4,7,118,28.6,118,55.3c0,26.6-21.7,48.3-48.3,48.3  c-26.6,0-48.3-21.7-48.3-48.3C21.4,28.6,43.1,7,69.7,7z"></path>
</svg>