<svg version="1.0" xmlns="http://www.w3.org/2000/svg" width="100%" height="100%" viewBox="0 0 400.000000 499.000000" preserveAspectRatio="xMidYMid meet"><g transform="translate(0.000000,499.000000) scale(0.100000,-0.100000)" fill="var(--white-color)" stroke="none"><path d="M890 4966 c0 -28 74 -449 170 -966 72 -388 140 -767 140 -780 0 -13
85 -21 141 -14 l52 7 -6 122 c-4 66 -27 384 -51 706 -25 321 -47 627 -48 679
l-3 95 185 -4 c102 -2 188 -5 192 -7 3 -2 4 -363 1 -803 l-6 -798 145 -2 145
-2 6 38 c3 21 6 398 7 838 0 440 3 821 6 846 l6 47 -328 6 c-181 3 -425 8
-541 11 l-213 5 0 -24z"></path> <path d="M2510 4960 c-132 -28 -279 -140 -336 -257 l-29 -58 -8 -365 c-4 -201
-6 -475 -5 -610 3 -231 4 -248 27 -304 32 -81 99 -147 176 -176 80 -29 217
-25 282 8 58 30 109 77 138 127 23 38 125 349 125 379 0 16 -157 33 -171 19
-4 -4 -22 -60 -39 -123 -44 -166 -59 -200 -94 -221 -63 -38 -117 -17 -137 55
-21 74 0 1001 26 1121 8 40 27 87 43 110 68 99 225 114 319 32 77 -68 90 -153
48 -325 -14 -57 -25 -105 -25 -108 0 -2 38 -4 84 -4 l83 0 28 103 c50 182 36
331 -39 430 -42 55 -130 117 -204 144 -75 28 -216 39 -292 23z"></path> <path d="M628 3546 c-129 -115 -255 -248 -327 -346 -34 -45 -61 -85 -61 -89 0
-4 10 -16 21 -27 12 -10 30 -38 41 -61 23 -52 15 -89 -42 -203 -20 -41 -54
-127 -73 -190 -40 -126 -81 -189 -141 -214 l-33 -14 -7 -142 c-6 -125 5 -396
20 -498 3 -19 25 -56 55 -93 45 -53 56 -77 96 -202 25 -78 60 -174 79 -214 41
-85 42 -118 8 -184 l-25 -51 28 -67 c46 -108 247 -349 373 -446 l56 -43 38 23
c66 40 99 41 154 3 26 -18 119 -68 207 -111 256 -126 275 -142 275 -231 l0
-43 58 -16 c292 -80 666 -95 948 -37 479 99 953 435 1264 894 70 104 150 248
144 258 -9 14 -23 -1 -51 -55 -14 -29 -54 -95 -88 -147 -307 -467 -787 -815
-1266 -919 -119 -25 -326 -43 -401 -35 -52 6 -58 9 -58 29 0 12 6 27 13 32 6
6 75 13 152 16 363 16 707 146 1020 386 85 64 256 232 328 321 79 99 169 236
219 334 38 75 39 80 22 93 -34 25 -49 15 -83 -54 -42 -87 -128 -218 -199 -308
-182 -228 -399 -402 -656 -526 -226 -109 -416 -157 -652 -166 -150 -6 -151 -5
-157 17 -11 42 1 50 69 50 93 0 275 26 384 55 427 114 805 389 1043 760 47 75
117 208 117 225 0 27 -19 2 -63 -83 -74 -143 -170 -271 -307 -407 -149 -149
-268 -236 -450 -329 -147 -74 -295 -127 -460 -162 -89 -19 -136 -23 -305 -23
-170 -1 -217 3 -314 22 -680 137 -1199 628 -1366 1291 -56 222 -59 530 -9 781
22 107 86 294 132 387 119 237 338 491 564 656 74 54 76 59 47 134 -13 35 -27
36 -75 2 -28 -19 -59 -32 -76 -31 -34 1 -94 36 -108 63 -6 10 -15 19 -19 19
-5 0 -51 -38 -103 -84z"></path> <path d="M2960 3590 c0 -16 39 -90 68 -129 26 -35 82 -64 145 -75 32 -6 37 -4
37 12 0 99 -82 177 -207 197 -29 5 -43 3 -43 -5z"></path> <path d="M3344 3390 c6 -74 8 -76 60 -130 65 -68 132 -150 176 -215 l34 -49 8
29 c20 70 -15 171 -90 255 -22 25 -75 77 -118 115 l-77 70 7 -75z"></path> <path d="M3193 3204 c43 -44 93 -100 110 -127 17 -26 46 -57 66 -68 45 -27
130 -49 137 -37 10 15 -45 87 -151 196 l-100 104 -70 5 -70 5 78 -78z"></path> <path d="M2211 3013 c-7 -42 -17 -87 -22 -100 l-9 -23 -245 0 -245 0 0 60 c0
46 -3 60 -15 60 -10 0 -15 -15 -17 -57 l-3 -58 -254 -3 c-197 -2 -256 1 -263
10 -4 7 -8 34 -8 61 0 35 -4 47 -15 47 -12 0 -15 -13 -15 -60 l0 -60 -90 0
c-116 0 -118 -18 -2 -22 l87 -3 3 -172 2 -173 -200 0 c-127 0 -200 -4 -200
-10 0 -6 73 -10 200 -10 l200 0 0 -175 0 -175 -245 0 c-157 0 -245 -4 -245
-10 0 -6 88 -10 245 -10 l245 0 0 -175 0 -175 -235 0 c-147 0 -235 -4 -235
-10 0 -6 89 -11 233 -12 l232 -3 2 -130 3 -130 -60 63 c-32 35 -63 61 -69 58
-5 -3 -37 -51 -71 -106 -62 -100 -62 -100 -102 -100 -42 0 -51 -22 -10 -28 17
-3 20 -8 16 -30 -3 -15 1 -35 9 -46 13 -17 15 -16 43 28 l29 46 108 0 107 0 0
-170 0 -170 -31 0 c-27 0 -30 -2 -19 -15 7 -8 20 -15 29 -15 9 0 21 -10 26
-22 6 -12 16 -24 24 -26 8 -3 11 0 7 6 -3 6 -3 17 0 26 5 14 38 16 265 16
l258 0 3 -152 c2 -110 6 -152 16 -156 9 -3 12 32 12 152 l0 156 260 0 260 0 0
-156 c0 -120 3 -155 13 -152 9 4 13 46 15 156 l3 152 259 0 260 0 0 -31 c0
-34 16 -31 30 7 6 14 18 24 29 24 10 0 24 7 31 15 11 13 7 15 -24 15 l-36 0 0
170 0 170 175 0 c149 0 175 2 175 15 0 13 -26 15 -175 15 l-175 0 2 173 3 172
238 0 c181 0 237 3 237 12 0 10 -57 13 -237 15 l-238 3 -3 159 c-2 108 1 163
9 172 9 11 59 14 250 14 153 0 239 4 239 10 0 6 -82 10 -225 10 -187 0 -225 2
-225 14 0 8 3 16 8 18 4 2 63 74 132 160 l125 158 53 0 c33 0 51 4 47 10 -3 6
-19 10 -36 10 -32 0 -37 15 -13 41 14 16 15 23 4 49 l-12 30 -47 -60 -46 -59
-130 2 -130 2 0 170 0 170 100 5 c116 6 108 18 -15 22 l-85 3 -3 58 c-2 42 -7
57 -17 57 -12 0 -15 -14 -15 -60 l0 -60 -240 0 -239 0 -10 38 c-6 20 -15 62
-22 92 -6 30 -14 58 -18 63 -4 4 -13 -28 -20 -70z m-556 -318 l0 -170 -254 -3
c-197 -2 -256 1 -263 10 -9 15 -11 299 -2 322 6 15 35 16 263 14 l256 -3 0
-170z m520 163 c2 -7 -10 -85 -28 -173 l-32 -160 -212 -3 -213 -2 0 168 c0 93
3 172 7 175 3 4 111 7 240 7 178 0 235 -3 238 -12z m583 -165 l2 -173 -194 0
-194 0 -41 166 c-23 91 -39 170 -36 175 4 6 97 8 233 7 l227 -3 3 -172z m-477
-45 c16 -62 29 -117 29 -121 0 -5 -15 -7 -32 -5 l-33 3 -3 124 c-1 69 0 122 4
119 3 -4 19 -57 35 -120z m-71 -63 c0 -53 -3 -65 -16 -65 -14 0 -16 8 -10 50
13 98 26 106 26 15z m-555 -260 l0 -170 -254 -3 c-197 -2 -256 1 -263 10 -9
15 -11 299 -2 322 6 15 35 16 263 14 l256 -3 0 -170z m448 168 c3 -5 -9 -82
-27 -173 l-31 -165 -178 -3 -177 -2 0 175 0 175 204 0 c113 0 207 -3 209 -7z
m105 -171 l2 -172 -48 0 c-27 0 -51 2 -54 5 -2 3 8 71 24 152 38 201 36 195
56 191 15 -3 17 -22 20 -176z m112 156 c11 -25 80 -301 80 -318 0 -7 -26 -10
-77 -8 l-78 3 -3 160 c-1 87 0 165 2 172 3 7 19 13 36 13 22 0 33 -6 40 -22z
m438 -150 l-3 -173 -145 0 -145 0 -42 164 c-23 91 -40 168 -37 173 3 4 88 8
190 8 l184 0 -2 -172z m258 157 c-8 -21 -209 -274 -218 -274 -10 -1 -11 273
-1 282 3 4 56 7 116 7 92 0 108 -2 103 -15z m-1358 -499 c3 -136 2 -139 -23
-172 l-26 -34 -237 2 -237 3 -3 150 c-1 83 0 160 3 173 l5 22 258 -2 257 -3 3
-139z m372 119 c0 -23 -45 -270 -56 -307 -5 -16 -20 -18 -126 -18 -165 0 -158
-8 -158 185 0 83 3 155 7 158 3 4 80 7 170 7 l163 0 0 -25z m178 -152 l2 -173
-84 0 c-47 0 -87 3 -89 8 -3 5 52 307 62 340 1 2 25 2 54 0 l52 -3 3 -172z
m211 140 c35 -134 71 -284 71 -298 0 -14 -16 -15 -122 -13 l-123 3 -3 160 c-1
87 0 165 2 172 4 9 29 13 85 13 l80 0 10 -37z m301 26 c0 -12 -180 -242 -185
-237 -7 6 -55 208 -55 227 0 20 5 21 120 21 81 0 120 -4 120 -11z m40 -199 l0
-140 -111 0 c-61 0 -109 4 -107 8 4 10 211 272 215 272 2 0 3 -63 3 -140z
m-1186 -168 c2 -4 -52 -83 -122 -175 l-127 -167 -77 0 c-71 0 -78 2 -97 26
-19 24 -21 40 -21 160 0 73 3 139 6 148 5 14 34 16 219 16 118 0 216 -4 219
-8z m382 -6 c6 -15 -31 -224 -41 -234 -6 -7 0 -15 -89 111 -42 59 -76 114 -76
122 0 22 198 22 206 1z m252 -163 l2 -173 -125 0 c-69 0 -125 3 -125 7 0 33
65 330 74 336 6 4 47 6 91 5 l80 -3 3 -172z m550 0 l2 -173 -260 0 -260 0 0
168 c0 93 3 172 7 175 3 4 119 6 257 4 l251 -2 3 -172z m-1098 -8 l0 -165
-125 0 c-69 0 -125 4 -125 9 0 13 236 321 246 321 2 0 4 -74 4 -165z m101 43
c34 -51 80 -116 101 -145 21 -29 38 -55 38 -58 0 -3 -47 -5 -105 -5 l-105 0 0
150 c0 83 2 150 4 150 3 0 33 -42 67 -92z m-756 -206 c-48 -2 -90 -1 -92 2 -2
2 13 30 34 61 l38 58 53 -59 54 -59 -87 -3z m285 -39 c-1 -13 -27 -43 -37 -43
-6 0 -18 11 -27 25 l-16 25 40 0 c22 0 40 -3 40 -7z m370 -163 l0 -170 -262 2
-263 3 -3 135 c-1 74 0 145 3 158 5 21 10 18 61 -38 31 -33 60 -60 64 -60 4 0
32 32 61 70 l54 70 142 0 143 0 0 -170z m278 158 c9 -9 12 -9 12 0 0 9 36 12
130 12 l130 0 0 -170 0 -170 -260 0 -260 0 0 170 0 170 118 0 c78 0 122 -4
130 -12z m822 -158 l0 -170 -260 0 -260 0 0 170 0 170 260 0 260 0 0 -170z"></path> <path d="M3691 3017 c-20 -53 -13 -116 26 -211 20 -50 49 -131 63 -181 14 -49
30 -89 36 -89 14 3 45 95 47 139 1 46 -72 228 -128 316 l-34 54 -10 -28z"></path> <path d="M3440 2906 c0 -2 16 -30 35 -62 19 -32 53 -105 76 -163 44 -113 60
-136 127 -183 l42 -29 0 27 c0 14 -13 66 -30 115 -56 169 -111 250 -192 283
-36 16 -58 20 -58 12z"></path> <path d="M3892 2488 c-33 -72 -46 -157 -34 -230 6 -35 14 -107 18 -161 l7 -97
42 57 c61 85 63 110 20 353 -22 125 -27 132 -53 78z"></path> <path d="M3644 2393 c11 -37 26 -150 26 -199 0 -74 26 -149 67 -195 19 -21 39
-36 44 -33 12 7 11 154 -1 233 -6 35 -22 85 -35 111 -33 66 -117 134 -101 83z"></path> <path d="M3915 1878 c-50 -51 -52 -56 -59 -120 -4 -38 -16 -113 -27 -169 -11
-55 -18 -103 -15 -106 12 -12 78 42 96 78 24 45 56 178 65 264 3 33 8 70 11
83 7 36 -15 26 -71 -30z"></path> <path d="M3670 1838 c0 -54 -7 -106 -20 -148 -27 -89 -26 -131 5 -164 13 -14
29 -26 34 -26 26 0 64 135 77 271 6 66 6 66 -31 108 -56 62 -65 56 -65 -41z"></path> <path d="M905 913 c-25 -32 -45 -61 -45 -64 0 -11 70 -69 83 -69 20 0 57 30
57 47 0 8 -11 28 -25 45 -45 53 -27 76 30 38 32 -21 45 -25 45 -12 -1 8 -83
72 -93 72 -4 0 -27 -26 -52 -57z m43 -45 c15 -15 16 -45 1 -54 -6 -3 -20 3
-32 14 -17 17 -18 23 -7 36 15 19 22 20 38 4z"></path> <path d="M2857 914 l-46 -36 34 -49 c20 -30 31 -56 28 -68 -5 -19 24 -70 40
-71 4 0 6 14 5 32 -3 27 3 36 39 61 41 29 43 30 62 13 10 -9 22 -13 25 -8 7
12 -22 52 -38 52 -8 0 -31 21 -52 48 -20 26 -40 50 -44 55 -3 4 -27 -9 -53
-29z m72 -41 c35 -42 36 -59 5 -80 -20 -13 -23 -11 -52 34 -29 44 -30 49 -15
65 22 25 27 23 62 -19z"></path> <path d="M1198 767 c-23 -34 -58 -105 -58 -116 0 -12 73 -61 90 -61 19 0 10
15 -20 32 -34 20 -48 44 -32 60 7 7 21 4 47 -12 20 -12 39 -20 42 -16 8 8 -15
34 -37 41 -24 8 -31 29 -17 49 11 15 15 14 46 -8 31 -23 51 -26 51 -7 0 4 -22
20 -49 34 l-49 27 -14 -23z"></path> <path d="M2540 698 c0 -58 14 -158 21 -158 5 0 9 11 9 24 0 37 23 49 77 42
l48 -7 -65 60 c-70 65 -90 73 -90 39z m70 -57 c0 -11 -26 -22 -34 -14 -3 4 -6
15 -6 25 0 16 3 17 20 8 11 -6 20 -15 20 -19z"></path> <path d="M1497 620 c-52 -41 -42 -116 19 -145 56 -26 107 0 118 61 8 41 -5 69
-44 89 -39 20 -62 19 -93 -5z m87 -21 c30 -24 34 -57 8 -89 -35 -44 -101 -19
-102 38 0 22 40 72 58 72 5 0 21 -9 36 -21z"></path> <path d="M2235 616 c-45 -14 -47 -24 -24 -123 13 -58 35 -74 26 -19 -5 29 -2
35 19 45 14 6 31 11 39 11 14 0 35 29 35 49 0 13 -37 51 -47 50 -5 0 -26 -6
-48 -13z m52 -32 c7 -18 -20 -44 -44 -44 -20 0 -27 28 -13 45 17 20 49 19 57
-1z"></path> <path d="M1864 577 c-10 -26 1 -150 13 -154 9 -3 13 17 15 69 l3 73 38 3 c55
5 45 22 -13 22 -33 0 -52 -5 -56 -13z"></path></g></svg>