<svg xmlns="http://www.w3.org/2000/svg" xmlns:xlink="http://www.w3.org/1999/xlink" version="1.1" id="Layer_1" x="0px" y="0px" width="34.305886661305" height="27.993603515625" viewBox="0 0 125 102.8" style="enable-background:new 0 0 125 102.8;" xml:space="preserve" overflow="hidden" preserveAspectRatio="none" class="svg-view__svg">
<path id="Color1" style="fill: rgb(255, 255, 255);" d="M57.2,41.1l5.9,1c-0.7-2.5-1.1-5-1.1-7.7c0-2.7,0.4-5.3,1.1-7.7l-5.9,1  c-1.1,0.2-1.8,1.1-1.8,2.1V39C55.4,40,56.2,40.9,57.2,41.1z M35.8,51.1L35,46.5c-0.1-0.9-0.9-1.5-1.8-1.5h-7.9  c-0.9,0-1.7,0.6-1.8,1.5l-0.8,4.6c2.1-0.6,4.2-0.9,6.5-0.9C31.6,50.2,33.7,50.5,35.8,51.1z M29.3,54.3c-11,0-19.9,8.8-19.9,19.6  c0,10.8,8.9,19.6,19.9,19.6c11,0,19.9-8.8,19.9-19.6C49.2,63.1,40.2,54.3,29.3,54.3z M29.3,88.3c-8.1,0-14.6-6.5-14.6-14.4  c0-8,6.6-14.4,14.6-14.4c8.1,0,14.6,6.5,14.6,14.4C43.9,81.9,37.4,88.3,29.3,88.3z M90.2,10.7c-13.2,0-24,10.6-24,23.7  c0,13,10.8,23.7,24,23.7c13.2,0,24-10.6,24-23.7C114.2,21.3,103.5,10.7,90.2,10.7z M90.2,51.5c-9.6,0-17.4-7.7-17.4-17.1  c0-9.5,7.8-17.1,17.4-17.1c9.6,0,17.4,7.7,17.4,17.1C107.6,43.8,99.8,51.5,90.2,51.5z M114.9,21l3.5-4.8c0.6-0.8,0.5-2-0.2-2.8  l-6.6-6.5c-0.8-0.7-1.9-0.8-2.8-0.2l-4.9,3.4C108.5,12.6,112.3,16.4,114.9,21z M65.6,21c2.6-4.6,6.4-8.4,11-10.9l-4.9-3.4  c-0.9-0.6-2-0.5-2.8,0.2l-6.6,6.5c-0.7,0.7-0.9,1.9-0.2,2.8L65.6,21z M98,7.7l-1-5.8c-0.2-1-1.1-1.8-2.1-1.8h-9.4  c-1.1,0-2,0.8-2.1,1.8l-1,5.8c2.5-0.7,5.1-1.1,7.8-1.1S95.5,7,98,7.7z M50.3,62.3l2.7-3.8c0.5-0.7,0.4-1.7-0.2-2.3l-5.6-5.5  c-0.6-0.6-1.6-0.7-2.4-0.2L41,53.2C44.9,55.4,48.1,58.5,50.3,62.3z M65.6,47.8l-3.5,4.8c-0.6,0.9-0.5,2,0.2,2.8l6.6,6.5  c0.7,0.7,1.9,0.8,2.8,0.2l4.9-3.4C72,56.2,68.1,52.4,65.6,47.8z M57.1,68.2l-4.6-0.8c0.6,2.1,0.9,4.2,0.9,6.4s-0.3,4.4-0.9,6.4  l4.6-0.8c0.9-0.1,1.5-0.9,1.5-1.8V70C58.6,69.1,57.9,68.4,57.1,68.2z M82.4,61.1l1,5.8c0.2,1,1.1,1.8,2.1,1.8h9.4  c1.1,0,2-0.7,2.1-1.8l1-5.8c-2.5,0.7-5.1,1.1-7.8,1.1S84.9,61.8,82.4,61.1z M8.3,62.3c2.2-3.8,5.4-6.9,9.2-9.1l-3.8-2.7  C13,50,12,50.1,11.4,50.7l-5.6,5.5c-0.6,0.6-0.7,1.6-0.2,2.3L8.3,62.3z M123.2,27.7l-5.9-1c0.7,2.4,1.1,5,1.1,7.7  c0,2.7-0.4,5.2-1.1,7.7l5.9-1c1-0.2,1.8-1.1,1.8-2.1v-9.2C125,28.7,124.2,27.8,123.2,27.7z M114.9,47.8c-2.6,4.6-6.4,8.4-11.1,10.9  l4.9,3.4c0.9,0.6,2,0.5,2.8-0.2l6.6-6.5c0.8-0.7,0.9-1.9,0.2-2.8L114.9,47.8z M8.3,85.5l-2.7,3.8C5.1,90,5.2,91,5.8,91.6l5.6,5.5  c0.6,0.6,1.6,0.7,2.4,0.2l3.8-2.7C13.7,92.4,10.5,89.3,8.3,85.5z M50.3,85.5c-2.2,3.8-5.4,6.9-9.2,9.1l3.8,2.7  c0.7,0.5,1.7,0.4,2.4-0.2l5.6-5.5c0.6-0.6,0.7-1.6,0.2-2.3L50.3,85.5z M5.2,73.9c0-2.2,0.3-4.4,0.9-6.4l-4.6,0.8  C0.6,68.4,0,69.1,0,70v7.8c0,0.9,0.6,1.6,1.5,1.8l4.6,0.8C5.6,78.3,5.2,76.1,5.2,73.9z M22.8,96.7l0.8,4.6c0.1,0.9,0.9,1.5,1.8,1.5  h7.9c0.9,0,1.7-0.6,1.8-1.5l0.8-4.6c-2.1,0.6-4.3,0.9-6.5,0.9C27,97.6,24.9,97.3,22.8,96.7z"></path>
</svg>